<svg width="16" height="16" viewBox="0 0 16 16" fill="none" xmlns="http://www.w3.org/2000/svg">
<path d="M10.8337 3.45341C10.6662 3.67298 10.7085 3.98673 10.9281 4.15419C12.1203 5.06343 12.8333 6.47214 12.8333 8C12.8333 10.4907 10.9494 12.5413 8.52886 12.8047L8.97977 12.3536C9.17503 12.1583 9.17503 11.8417 8.97977 11.6464C8.80226 11.4689 8.52448 11.4528 8.32874 11.598L8.27266 11.6464L6.93933 12.9798C6.76182 13.1573 6.74568 13.4351 6.89092 13.6308L6.93933 13.6869L8.27266 15.0202C8.46793 15.2155 8.78451 15.2155 8.97977 15.0202C9.15728 14.8427 9.17342 14.5649 9.02818 14.3692L8.97977 14.3131L8.47961 13.8139C11.4769 13.57 13.8333 11.0602 13.8333 8C13.8333 6.15685 12.9721 4.45548 11.5345 3.35905C11.3149 3.19159 11.0012 3.23384 10.8337 3.45341ZM7.02021 0.979782C6.82495 1.17504 6.82495 1.49163 7.02021 1.68689L7.5197 2.18616C4.52271 2.4304 2.16666 4.94006 2.16666 8C2.16666 9.76297 2.95416 11.3983 4.2872 12.4994C4.5001 12.6753 4.81525 12.6452 4.99112 12.4323C5.16698 12.2194 5.13695 11.9043 4.92405 11.7284C3.81861 10.8153 3.16666 9.46147 3.16666 8C3.16666 5.50958 5.0502 3.45908 7.47045 3.19535L7.02021 3.64645C6.82495 3.84171 6.82495 4.15829 7.02021 4.35356C7.21547 4.54882 7.53205 4.54882 7.72732 4.35356L9.06065 3.02022C9.25591 2.82496 9.25591 2.50838 9.06065 2.31312L7.72732 0.979782C7.53205 0.78452 7.21547 0.78452 7.02021 0.979782Z" fill="#FA6736"/>
</svg>
