<svg width="14" height="16" viewBox="0 0 14 16" fill="none" xmlns="http://www.w3.org/2000/svg">
<path d="M10.5443 10.167C10.5943 10.167 10.6309 10.1832 10.6517 10.1992C10.6594 10.2052 10.6637 10.2104 10.6663 10.2139L10.6693 10.2393V14.5732L11.5228 13.7207L12.5403 12.7021C12.5836 12.6591 12.6512 12.6547 12.6995 12.6885L12.72 12.7061C12.76 12.749 12.7639 12.8132 12.7318 12.8604L12.7044 12.8916L10.7444 14.8545L10.7015 14.8975L10.6693 14.9502C10.6619 14.9617 10.6239 14.9999 10.5452 15C10.4662 15 10.4276 14.9617 10.4202 14.9502L10.388 14.8975L10.345 14.8545L8.37238 12.8799V12.8789L8.34503 12.8379C8.32676 12.7928 8.33578 12.7387 8.37238 12.7021C8.41541 12.6593 8.4823 12.6552 8.53058 12.6885L8.56671 12.7197L9.56573 13.7197L10.4193 14.5752V10.2139C10.4191 10.2239 10.4131 10.2188 10.431 10.2031C10.4503 10.1862 10.4893 10.167 10.5443 10.167ZM2.20831 1.82715H5.54132C5.61036 1.82715 5.66632 1.88311 5.66632 1.95215C5.66614 2.02103 5.61025 2.07715 5.54132 2.07715H2.20831C1.58699 2.07715 1.08331 2.58083 1.08331 3.20215V12.7852C1.08331 13.4065 1.58699 13.9102 2.20831 13.9102H5.54132C5.61036 13.9102 5.66632 13.9661 5.66632 14.0352C5.66632 14.1042 5.61036 14.1602 5.54132 14.1602H2.20831C1.44892 14.1602 0.833313 13.5445 0.833313 12.7852V3.20215C0.833313 2.44276 1.44892 1.82715 2.20831 1.82715ZM10.5423 1C10.6063 1 10.645 1.02654 10.6605 1.04297L10.6868 1.08008L10.7112 1.11523L10.7415 1.14551L12.7015 3.10742L12.7288 3.13965C12.7561 3.17951 12.7566 3.23135 12.7318 3.27246L12.7103 3.29785L12.6946 3.31152C12.6546 3.33844 12.6028 3.33968 12.5618 3.31445L12.5208 3.28027L11.5198 2.2793L10.6663 1.42676V5.77246L10.6644 5.78516C10.6619 5.78863 10.658 5.79438 10.6497 5.80078C10.6289 5.81681 10.5915 5.83301 10.5413 5.83301C10.4913 5.83295 10.4547 5.81678 10.4339 5.80078C10.4253 5.79411 10.4207 5.78865 10.4183 5.78516L10.4163 5.75977V1.4248L9.56281 2.28027L8.5589 3.28418L8.52765 3.31152C8.4793 3.34459 8.41237 3.34078 8.36945 3.29785C8.32647 3.25486 8.32157 3.18703 8.3548 3.13867L8.38214 3.10742L10.3431 1.14551L10.386 1.10254L10.4173 1.0498C10.4243 1.0386 10.4628 1.00004 10.5423 1Z" fill="#121212"/>
<path d="M10.5443 10.167C10.5943 10.167 10.6309 10.1832 10.6517 10.1992C10.6594 10.2052 10.6637 10.2104 10.6663 10.2139L10.6693 10.2393V14.5732L11.5228 13.7207L12.5403 12.7021C12.5836 12.6591 12.6512 12.6547 12.6995 12.6885L12.72 12.7061C12.76 12.749 12.7639 12.8132 12.7318 12.8604L12.7044 12.8916L10.7444 14.8545L10.7015 14.8975L10.6693 14.9502C10.6619 14.9617 10.6239 14.9999 10.5452 15C10.4662 15 10.4276 14.9617 10.4202 14.9502L10.388 14.8975L10.345 14.8545L8.37238 12.8799V12.8789L8.34503 12.8379C8.32676 12.7928 8.33578 12.7387 8.37238 12.7021C8.41541 12.6593 8.4823 12.6552 8.53058 12.6885L8.56671 12.7197L9.56573 13.7197L10.4193 14.5752V10.2139C10.4191 10.2239 10.4131 10.2188 10.431 10.2031C10.4503 10.1862 10.4893 10.167 10.5443 10.167ZM2.20831 1.82715H5.54132C5.61036 1.82715 5.66632 1.88311 5.66632 1.95215C5.66614 2.02103 5.61025 2.07715 5.54132 2.07715H2.20831C1.58699 2.07715 1.08331 2.58083 1.08331 3.20215V12.7852C1.08331 13.4065 1.58699 13.9102 2.20831 13.9102H5.54132C5.61036 13.9102 5.66632 13.9661 5.66632 14.0352C5.66632 14.1042 5.61036 14.1602 5.54132 14.1602H2.20831C1.44892 14.1602 0.833313 13.5445 0.833313 12.7852V3.20215C0.833313 2.44276 1.44892 1.82715 2.20831 1.82715ZM10.5423 1C10.6063 1 10.645 1.02654 10.6605 1.04297L10.6868 1.08008L10.7112 1.11523L10.7415 1.14551L12.7015 3.10742L12.7288 3.13965C12.7561 3.17951 12.7566 3.23135 12.7318 3.27246L12.7103 3.29785L12.6946 3.31152C12.6546 3.33844 12.6028 3.33968 12.5618 3.31445L12.5208 3.28027L11.5198 2.2793L10.6663 1.42676V5.77246L10.6644 5.78516C10.6619 5.78863 10.658 5.79438 10.6497 5.80078C10.6289 5.81681 10.5915 5.83301 10.5413 5.83301C10.4913 5.83295 10.4547 5.81678 10.4339 5.80078C10.4253 5.79411 10.4207 5.78865 10.4183 5.78516L10.4163 5.75977V1.4248L9.56281 2.28027L8.5589 3.28418L8.52765 3.31152C8.4793 3.34459 8.41237 3.34078 8.36945 3.29785C8.32647 3.25486 8.32157 3.18703 8.3548 3.13867L8.38214 3.10742L10.3431 1.14551L10.386 1.10254L10.4173 1.0498C10.4243 1.0386 10.4628 1.00004 10.5423 1Z" stroke="black"/>
<path d="M10.5443 10.167C10.5943 10.167 10.6309 10.1832 10.6517 10.1992C10.6594 10.2052 10.6637 10.2104 10.6663 10.2139L10.6693 10.2393V14.5732L11.5228 13.7207L12.5403 12.7021C12.5836 12.6591 12.6512 12.6547 12.6995 12.6885L12.72 12.7061C12.76 12.749 12.7639 12.8132 12.7318 12.8604L12.7044 12.8916L10.7444 14.8545L10.7015 14.8975L10.6693 14.9502C10.6619 14.9617 10.6239 14.9999 10.5452 15C10.4662 15 10.4276 14.9617 10.4202 14.9502L10.388 14.8975L10.345 14.8545L8.37238 12.8799V12.8789L8.34503 12.8379C8.32676 12.7928 8.33578 12.7387 8.37238 12.7021C8.41541 12.6593 8.4823 12.6552 8.53058 12.6885L8.56671 12.7197L9.56573 13.7197L10.4193 14.5752V10.2139C10.4191 10.2239 10.4131 10.2188 10.431 10.2031C10.4503 10.1862 10.4893 10.167 10.5443 10.167ZM2.20831 1.82715H5.54132C5.61036 1.82715 5.66632 1.88311 5.66632 1.95215C5.66614 2.02103 5.61025 2.07715 5.54132 2.07715H2.20831C1.58699 2.07715 1.08331 2.58083 1.08331 3.20215V12.7852C1.08331 13.4065 1.58699 13.9102 2.20831 13.9102H5.54132C5.61036 13.9102 5.66632 13.9661 5.66632 14.0352C5.66632 14.1042 5.61036 14.1602 5.54132 14.1602H2.20831C1.44892 14.1602 0.833313 13.5445 0.833313 12.7852V3.20215C0.833313 2.44276 1.44892 1.82715 2.20831 1.82715ZM10.5423 1C10.6063 1 10.645 1.02654 10.6605 1.04297L10.6868 1.08008L10.7112 1.11523L10.7415 1.14551L12.7015 3.10742L12.7288 3.13965C12.7561 3.17951 12.7566 3.23135 12.7318 3.27246L12.7103 3.29785L12.6946 3.31152C12.6546 3.33844 12.6028 3.33968 12.5618 3.31445L12.5208 3.28027L11.5198 2.2793L10.6663 1.42676V5.77246L10.6644 5.78516C10.6619 5.78863 10.658 5.79438 10.6497 5.80078C10.6289 5.81681 10.5915 5.83301 10.5413 5.83301C10.4913 5.83295 10.4547 5.81678 10.4339 5.80078C10.4253 5.79411 10.4207 5.78865 10.4183 5.78516L10.4163 5.75977V1.4248L9.56281 2.28027L8.5589 3.28418L8.52765 3.31152C8.4793 3.34459 8.41237 3.34078 8.36945 3.29785C8.32647 3.25486 8.32157 3.18703 8.3548 3.13867L8.38214 3.10742L10.3431 1.14551L10.386 1.10254L10.4173 1.0498C10.4243 1.0386 10.4628 1.00004 10.5423 1Z" stroke="black" stroke-opacity="0.2"/>
</svg>
