<svg width="18" height="18" viewBox="0 0 18 18" fill="none" xmlns="http://www.w3.org/2000/svg">
<path d="M0.849703 0.849715C0.627815 1.0716 0.607643 1.41882 0.789188 1.6635L0.849703 1.7336L4.21184 5.09574C2.61019 6.22029 1.41312 7.89993 0.915714 9.88698C0.831894 10.2218 1.03539 10.5612 1.37024 10.645C1.70508 10.7289 2.04448 10.5254 2.1283 10.1905C2.56953 8.42789 3.65924 6.94955 5.11178 5.99543L6.61981 7.50353C6.03021 8.10481 5.66665 8.92854 5.66665 9.83718C5.66665 11.6781 7.15903 13.1705 8.99998 13.1705C9.90862 13.1705 10.7323 12.8069 11.3336 12.2174L16.2664 17.1503C16.5104 17.3943 16.9062 17.3943 17.1503 17.1503C17.3721 16.9284 17.3923 16.5812 17.2108 16.3365L17.1503 16.2664L12.0556 11.1712L12.0566 11.17L11.0566 10.1718L8.66496 7.78064L8.66665 7.77999L6.26562 5.38151L6.26665 5.37999L5.32224 4.4379L1.73359 0.849715C1.48951 0.605637 1.09378 0.605637 0.849703 0.849715ZM7.50337 8.38788L10.4493 11.3338C10.0743 11.697 9.56324 11.9205 8.99998 11.9205C7.84939 11.9205 6.91665 10.9878 6.91665 9.83718C6.91665 9.27391 7.14018 8.76286 7.50337 8.38788ZM8.99998 3.58332C8.16643 3.58332 7.35759 3.70672 6.59256 3.93749L7.62337 4.96765C8.06987 4.87942 8.53031 4.83332 8.99998 4.83332C12.2692 4.83332 15.0916 7.06688 15.8726 10.1943C15.9562 10.5292 16.2955 10.7329 16.6304 10.6492C16.9653 10.5656 17.169 10.2263 17.0854 9.89141C16.1661 6.21059 12.8462 3.58332 8.99998 3.58332ZM9.16221 6.50772L12.33 9.67499C12.2452 7.96089 10.8727 6.58969 9.16221 6.50772Z" fill="#121212"/>
</svg>
