<svg width="14" height="4" viewBox="0 0 14 4" fill="none" xmlns="http://www.w3.org/2000/svg">
<path d="M3.45835 2C3.45835 2.80542 2.80544 3.45833 2.00002 3.45833C1.19461 3.45833 0.541687 2.80542 0.541687 2C0.541687 1.19459 1.19461 0.541668 2.00002 0.541668C2.80544 0.541668 3.45835 1.19459 3.45835 2ZM8.45835 2C8.45835 2.80542 7.80544 3.45833 7.00002 3.45833C6.19461 3.45833 5.54169 2.80542 5.54169 2C5.54169 1.19459 6.19461 0.541668 7.00002 0.541668C7.80544 0.541668 8.45835 1.19459 8.45835 2ZM12 3.45833C12.8054 3.45833 13.4584 2.80542 13.4584 2C13.4584 1.19459 12.8054 0.541668 12 0.541668C11.1946 0.541668 10.5417 1.19459 10.5417 2C10.5417 2.80542 11.1946 3.45833 12 3.45833Z" fill="#AFAFAF"/>
</svg>
