<svg width="16" height="16" viewBox="0 0 16 16" fill="none" xmlns="http://www.w3.org/2000/svg">
<path d="M5.16671 8C5.16671 8.64433 4.64437 9.16667 4.00004 9.16667C3.35571 9.16667 2.83337 8.64433 2.83337 8C2.83337 7.35567 3.35571 6.83334 4.00004 6.83334C4.64437 6.83334 5.16671 7.35567 5.16671 8ZM9.16671 8C9.16671 8.64433 8.64437 9.16667 8.00004 9.16667C7.35571 9.16667 6.83337 8.64433 6.83337 8C6.83337 7.35567 7.35571 6.83334 8.00004 6.83334C8.64437 6.83334 9.16671 7.35567 9.16671 8ZM12 9.16667C12.6444 9.16667 13.1667 8.64433 13.1667 8C13.1667 7.35567 12.6444 6.83334 12 6.83334C11.3557 6.83334 10.8334 7.35567 10.8334 8C10.8334 8.64433 11.3557 9.16667 12 9.16667Z" fill="#AFAFAF"/>
</svg>
