<svg width="20" height="20" viewBox="0 0 20 20" fill="none" xmlns="http://www.w3.org/2000/svg">
<rect x="1" y="1" width="18" height="18" rx="9" fill="#4B6A4F"/>
<rect x="1" y="1" width="18" height="18" rx="9" stroke="white" stroke-width="2"/>
<path d="M7.7 13V12.22C8.33333 11.7667 8.86333 11.3667 9.29 11.02C9.72333 10.6733 10.07 10.3533 10.33 10.06C10.59 9.76667 10.7767 9.49 10.89 9.23C11.01 8.96333 11.07 8.69333 11.07 8.42C11.07 8.06667 10.96 7.78 10.74 7.56C10.52 7.34 10.2133 7.23 9.82 7.23C9.40667 7.23 9.07667 7.37 8.83 7.65C8.59 7.92333 8.45333 8.3 8.42 8.78L7.49 8.35C7.53667 7.93 7.66 7.56667 7.86 7.26C8.06 6.95333 8.33 6.71667 8.67 6.55C9.01667 6.38333 9.41667 6.3 9.87 6.3C10.2433 6.3 10.57 6.35333 10.85 6.46C11.1367 6.56667 11.3767 6.71667 11.57 6.91C11.7633 7.09667 11.91 7.31667 12.01 7.57C12.1167 7.82333 12.17 8.09333 12.17 8.38C12.17 8.8 12.0667 9.20667 11.86 9.6C11.6533 9.98667 11.3267 10.3833 10.88 10.79C10.4333 11.1967 9.84667 11.6333 9.12 12.1V12.12C9.2 12.1067 9.31 12.1 9.45 12.1C9.59 12.0933 9.73 12.09 9.87 12.09C10.01 12.0833 10.1233 12.08 10.21 12.08H12.29V13H7.7Z" fill="#F6F6F6"/>
</svg>
