<svg width="14" height="8" viewBox="0 0 14 8" fill="none" xmlns="http://www.w3.org/2000/svg">
<path d="M5.16668 0.666664C5.44282 0.666664 5.66668 0.890522 5.66668 1.16666C5.66668 1.4177 5.48167 1.62553 5.24056 1.66124L5.16668 1.66666H3.66668C2.37801 1.66666 1.33334 2.71133 1.33334 4C1.33334 5.24264 2.30473 6.2584 3.52958 6.32937L3.66668 6.33333H5.16668C5.44282 6.33333 5.66668 6.55719 5.66668 6.83333C5.66668 7.08437 5.48167 7.2922 5.24056 7.32791L5.16668 7.33333H3.66668C1.82573 7.33333 0.333344 5.84095 0.333344 4C0.333344 2.21483 1.73665 0.757432 3.50031 0.670744L3.66668 0.666664H5.16668ZM10.3333 0.666664C12.1743 0.666664 13.6667 2.15905 13.6667 4C13.6667 5.78516 12.2634 7.24256 10.4997 7.32925L10.3333 7.33333H8.83334C8.5572 7.33333 8.33334 7.10947 8.33334 6.83333C8.33334 6.58229 8.51835 6.37446 8.75946 6.33875L8.83334 6.33333H10.3333C11.622 6.33333 12.6667 5.28866 12.6667 4C12.6667 2.75736 11.6953 1.74159 10.4704 1.67062L10.3333 1.66666H8.83334C8.5572 1.66666 8.33334 1.44281 8.33334 1.16666C8.33334 0.915626 8.51835 0.707798 8.75946 0.672085L8.83334 0.666664H10.3333ZM3.66668 3.5H10.3333C10.6095 3.5 10.8333 3.72385 10.8333 4C10.8333 4.25313 10.6452 4.46232 10.4012 4.49543L10.3333 4.5H3.66668C3.39053 4.5 3.16668 4.27614 3.16668 4C3.16668 3.74687 3.35478 3.53767 3.59883 3.50456L3.66668 3.5H10.3333H3.66668Z" fill="#1A8CFF"/>
</svg>
