<svg width="16" height="16" viewBox="0 0 16 16" fill="none" xmlns="http://www.w3.org/2000/svg">
<path d="M7.99998 1.33333C11.6819 1.33333 14.6666 4.3181 14.6666 8C14.6666 11.6819 11.6819 14.6667 7.99998 14.6667C4.31808 14.6667 1.33331 11.6819 1.33331 8C1.33331 4.3181 4.31808 1.33333 7.99998 1.33333ZM4.97976 6.64644C4.7845 6.8417 4.7845 7.15829 4.97976 7.35355L7.64643 10.0202C7.84169 10.2155 8.15827 10.2155 8.35353 10.0202L11.0202 7.35355C11.2155 7.15829 11.2155 6.8417 11.0202 6.64644C10.8249 6.45118 10.5084 6.45118 10.3131 6.64644L7.99998 8.95955L5.68687 6.64644C5.4916 6.45118 5.17502 6.45118 4.97976 6.64644Z" fill="#AFAFAF"/>
<path d="M7.99998 1.33333C11.6819 1.33333 14.6666 4.3181 14.6666 8C14.6666 11.6819 11.6819 14.6667 7.99998 14.6667C4.31808 14.6667 1.33331 11.6819 1.33331 8C1.33331 4.3181 4.31808 1.33333 7.99998 1.33333ZM4.97976 6.64644C4.7845 6.8417 4.7845 7.15829 4.97976 7.35355L7.64643 10.0202C7.84169 10.2155 8.15827 10.2155 8.35353 10.0202L11.0202 7.35355C11.2155 7.15829 11.2155 6.8417 11.0202 6.64644C10.8249 6.45118 10.5084 6.45118 10.3131 6.64644L7.99998 8.95955L5.68687 6.64644C5.4916 6.45118 5.17502 6.45118 4.97976 6.64644Z" fill="black" fill-opacity="0.7" style="mix-blend-mode:hue"/>
<path d="M7.99998 1.33333C11.6819 1.33333 14.6666 4.3181 14.6666 8C14.6666 11.6819 11.6819 14.6667 7.99998 14.6667C4.31808 14.6667 1.33331 11.6819 1.33331 8C1.33331 4.3181 4.31808 1.33333 7.99998 1.33333ZM4.97976 6.64644C4.7845 6.8417 4.7845 7.15829 4.97976 7.35355L7.64643 10.0202C7.84169 10.2155 8.15827 10.2155 8.35353 10.0202L11.0202 7.35355C11.2155 7.15829 11.2155 6.8417 11.0202 6.64644C10.8249 6.45118 10.5084 6.45118 10.3131 6.64644L7.99998 8.95955L5.68687 6.64644C5.4916 6.45118 5.17502 6.45118 4.97976 6.64644Z" fill="white" fill-opacity="0.16"/>
</svg>
