<svg width="20" height="20" viewBox="0 0 20 20" fill="none" xmlns="http://www.w3.org/2000/svg">
<path d="M15.2082 2.92391C15.5533 2.92401 15.8333 2.64427 15.8333 2.29909C15.8333 1.95392 15.5537 1.67401 15.2085 1.67391L4.37518 1.67078C4.03 1.67068 3.75 1.95042 3.75 2.2956C3.75 2.64077 4.02964 2.92068 4.37482 2.92078L15.2082 2.92391ZM9.70686 18.3308L9.79167 18.3365C10.1081 18.3365 10.3696 18.1013 10.411 17.7963L10.4167 17.7115L10.4158 6.30729L13.5173 9.40757C13.7393 9.62943 14.0865 9.64957 14.3311 9.468L14.4012 9.40748C14.6231 9.18556 14.6432 8.83834 14.4617 8.59368L14.4011 8.52359L10.2364 4.35975C10.0146 4.13801 9.66766 4.11775 9.423 4.29905L9.3529 4.35949L5.18336 8.52334C4.93912 8.76725 4.93885 9.16297 5.18276 9.40722C5.40449 9.62926 5.7517 9.64967 5.9965 9.46829L6.06664 9.40782L9.16583 6.31312L9.16667 17.7115C9.16667 18.0279 9.40179 18.2894 9.70686 18.3308Z" fill="#545454"/>
</svg>
